<?xml version="1.0" encoding="utf-8"?>
<!-- Generator: Adobe Illustrator 16.0.0, SVG Export Plug-In . SVG Version: 6.00 Build 0)  -->
<!DOCTYPE svg PUBLIC "-//W3C//DTD SVG 1.1//EN" "http://www.w3.org/Graphics/SVG/1.1/DTD/svg11.dtd">
<svg version="1.1" id="Layer_1" xmlns="http://www.w3.org/2000/svg" xmlns:xlink="http://www.w3.org/1999/xlink" x="0px" y="0px"
	 width="2304px" height="1296px" viewBox="0 0 2304 1296" enable-background="new 0 0 2304 1296" xml:space="preserve">
<rect opacity="0.2" enable-background="new    " width="2304" height="1296"/>
<g>
	<g>
		<path fill="#FFFFFF" d="M1752.071,480.427c2.699,0.526,4.9,3.207,4.896,5.957l-0.03,15.936c-0.007,2.75,1.519,3.349,3.386,1.329
			l41.659-45.036c1.865-2.021,1.805-5.264-0.142-7.206l-41.563-41.563c-1.944-1.942-3.535-1.285-3.535,1.465v25.514
			c0,2.75-2.198,4.519-4.885,3.931c0,0-141.402-30.946-143.359-64.431C1612.999,453.318,1752.071,480.427,1752.071,480.427z"/>
		<path fill="none" stroke="#E3784A" stroke-width="10" stroke-miterlimit="10" d="M1752.071,480.427
			c2.699,0.526,4.9,3.207,4.896,5.957l-0.03,15.936c-0.007,2.75,1.519,3.349,3.386,1.329l41.659-45.036
			c1.865-2.021,1.805-5.264-0.142-7.206l-41.563-41.563c-1.944-1.942-3.535-1.285-3.535,1.465v25.514
			c0,2.75-2.198,4.519-4.885,3.931c0,0-141.402-30.946-143.359-64.431C1612.999,453.318,1752.071,480.427,1752.071,480.427z"/>
	</g>
	<g>
		<path fill="#FFFFFF" d="M1712.5,378.641c0,0.93-2.303,1.691-5.116,1.691h-203.768c-2.813,0-5.116-0.761-5.116-1.691v-32.45
			c0-0.93,2.303-1.691,5.116-1.691h203.768c2.813,0,5.116,0.761,5.116,1.691V378.641z"/>
		<path fill="none" stroke="#E3784A" stroke-width="10" stroke-miterlimit="10" d="M1712.5,378.641c0,0.93-2.303,1.691-5.116,1.691
			h-203.768c-2.813,0-5.116-0.761-5.116-1.691v-32.45c0-0.93,2.303-1.691,5.116-1.691h203.768c2.813,0,5.116,0.761,5.116,1.691
			V378.641z"/>
	</g>
	<text transform="matrix(1 0 0 1 1510.7559 367.915)" font-family="'Arial-BoldMT'" font-size="18">This is the filter panel.</text>
</g>
<g>
	<g>
		<path fill="#FFFFFF" d="M1108.479,786.724c0.673-2.666,3.438-5.235,6.146-5.715l21.666-3.819c2.708-0.479,3.081-2.158,0.828-3.736
			l-47.414-33.199c-2.252-1.576-5.386-1.025-6.964,1.229l-33.2,47.413c-1.578,2.255-0.651,3.705,2.058,3.229l21.666-3.82
			c2.709-0.477,4.465,1.334,3.9,4.027c0,0-16.6,79.445-32.355,82.225C1088.249,866.894,1108.479,786.724,1108.479,786.724z"/>
		<path fill="none" stroke="#E3784A" stroke-width="10" stroke-miterlimit="10" d="M1108.479,786.724
			c0.673-2.666,3.438-5.235,6.146-5.715l21.666-3.819c2.708-0.479,3.081-2.158,0.828-3.736l-47.414-33.199
			c-2.252-1.576-5.386-1.025-6.964,1.229l-33.2,47.413c-1.578,2.255-0.651,3.705,2.058,3.229l21.666-3.82
			c2.709-0.477,4.465,1.334,3.9,4.027c0,0-16.6,79.445-32.355,82.225C1088.249,866.894,1108.479,786.724,1108.479,786.724z"/>
	</g>
	<g>
		<path fill="#FFFFFF" d="M1197.589,925.688c0,2.137-2.862,3.885-6.36,3.885H934.713c-3.498,0-6.36-1.748-6.36-3.885V881.36
			c0-2.137,2.862-3.885,6.36-3.885h256.516c3.498,0,6.36,1.748,6.36,3.885V925.688z"/>
		<path fill="none" stroke="#E3784A" stroke-width="10" stroke-miterlimit="10" d="M1197.589,925.688
			c0,2.137-2.862,3.885-6.36,3.885H934.713c-3.498,0-6.36-1.748-6.36-3.885V881.36c0-2.137,2.862-3.885,6.36-3.885h256.516
			c3.498,0,6.36,1.748,6.36,3.885V925.688z"/>
	</g>
	<text transform="matrix(1 0 0 1 972.7559 910.7539)" font-family="'Arial-BoldMT'" font-size="18">This is the map</text>
	<text transform="matrix(1 0 0 1 792.7559 932.3555)" font-family="'ArialMT'" font-size="18"> </text>
</g>
</svg>
